<svg width="1024" height="1024" viewBox="0 0 1024 1024" fill="none" xmlns="http://www.w3.org/2000/svg">
<rect x="112" y="112" width="800" height="800" rx="180" fill="url(#background)"/>
<g transform="translate(512 512) scale(0.72) translate(-512 -512)">
<path d="M411.5 330.626C411.5 335.069 413.265 339.329 416.406 342.47L430.28 356.344C433.421 359.485 437.681 361.25 442.124 361.25H478.5C487.751 361.25 495.25 368.749 495.25 378V729.75C495.25 739.001 487.751 746.5 478.5 746.5H428.25C418.999 746.5 411.5 739.001 411.5 729.75V391.874C411.5 387.431 409.735 383.171 406.594 380.03L392.72 366.156C389.579 363.015 385.319 361.25 380.876 361.25H207.624C203.181 361.25 198.921 363.015 195.78 366.156L181.906 380.03C178.765 383.171 177 387.431 177 391.874V729.75C177 739.001 169.501 746.5 160.25 746.5H110C100.749 746.5 93.25 739.001 93.25 729.75V378C93.25 368.749 100.749 361.25 110 361.25H146.376C150.819 361.25 155.079 359.485 158.22 356.344L172.094 342.47C175.235 339.329 177 335.069 177 330.626V294.25C177 284.999 184.499 277.5 193.75 277.5H394.75C404.001 277.5 411.5 284.999 411.5 294.25V330.626Z" fill="url(#glyph)"/>
<path d="M847 330.624C847 335.067 848.765 339.327 851.906 342.468L865.782 356.344C868.923 359.485 873.183 361.25 877.626 361.25H914C923.251 361.25 930.75 368.749 930.75 378V411.5C930.75 420.751 923.251 428.25 914 428.25H863.75C854.499 428.25 847 420.751 847 411.5V391.876C847 387.433 845.235 383.173 842.094 380.032L828.218 366.156C825.077 363.015 820.817 361.25 816.374 361.25H788.375C779.124 361.25 771.625 368.749 771.625 378V729.75C771.625 739.001 764.126 746.5 754.875 746.5H704.625C695.374 746.5 687.875 739.001 687.875 729.75V378C687.875 368.749 680.376 361.25 671.125 361.25H643.126C638.683 361.25 634.423 363.015 631.282 366.156L617.406 380.032C614.265 383.173 612.5 387.433 612.5 391.876V411.5C612.5 420.751 605.001 428.25 595.75 428.25H545.5C536.249 428.25 528.75 420.751 528.75 411.5V378C528.75 368.749 536.249 361.25 545.5 361.25H581.874C586.317 361.25 590.577 359.485 593.718 356.344L607.594 342.468C610.735 339.327 612.5 335.067 612.5 330.624V294.25C612.5 284.999 619.999 277.5 629.25 277.5H830.25C839.501 277.5 847 284.999 847 294.25V330.624Z" fill="url(#glyph)"/>
</g>
<defs>
<linearGradient id="background" x1="512" y1="112" x2="512" y2="912" gradientUnits="userSpaceOnUse">
<stop stop-color="#44403C"/>
<stop offset="1" stop-color="#1C1917"/>
</linearGradient>
<linearGradient id="glyph" x1="512" y1="277.5" x2="512" y2="746.5" gradientUnits="userSpaceOnUse">
<stop stop-color="#FFFFFF" stop-opacity="0.2"/>
<stop offset="0.706731" stop-color="#FFFFFF"/>
</linearGradient>
</defs>
</svg>
