<svg width="1024" height="1024" viewBox="0 0 1024 1024" fill="none" xmlns="http://www.w3.org/2000/svg">
  <defs>
    <linearGradient id="bgGrad" x1="512" y1="100" x2="512" y2="924" gradientUnits="userSpaceOnUse">
      <stop stop-color="#DBC1A3"/>
      <stop offset="1" stop-color="#9D7355"/>
    </linearGradient>
    <linearGradient id="logoFill" x1="511.5" y1="-76" x2="511.5" y2="858" gradientUnits="userSpaceOnUse">
      <stop stop-color="white" stop-opacity="0.2"/>
      <stop offset="0.706731" stop-color="white"/>
    </linearGradient>
    <linearGradient id="logoStroke" x1="511.5" y1="166" x2="511.5" y2="858" gradientUnits="userSpaceOnUse">
      <stop stop-color="white" stop-opacity="0.24"/>
      <stop offset="1" stop-color="#D4D0CE" stop-opacity="0.64"/>
    </linearGradient>
    <filter id="logoShadow" x="213" y="165" width="597" height="697" filterUnits="userSpaceOnUse" color-interpolation-filters="sRGB">
      <feFlood flood-opacity="0" result="BackgroundImageFix"/>
      <feColorMatrix in="SourceAlpha" type="matrix" values="0 0 0 0 0 0 0 0 0 0 0 0 0 0 0 0 0 0 127 0" result="hardAlpha"/>
      <feOffset dy="1"/>
      <feGaussianBlur stdDeviation="1"/>
      <feColorMatrix type="matrix" values="0 0 0 0 0.0470588 0 0 0 0 0.0392157 0 0 0 0 0.0352941 0 0 0 0.05 0"/>
      <feBlend mode="normal" in2="BackgroundImageFix" result="effect1_dropShadow"/>
      <feBlend mode="normal" in="SourceGraphic" in2="effect1_dropShadow" result="shape"/>
      <feColorMatrix in="SourceAlpha" type="matrix" values="0 0 0 0 0 0 0 0 0 0 0 0 0 0 0 0 0 0 127 0" result="hardAlpha"/>
      <feOffset dy="4"/>
      <feGaussianBlur stdDeviation="10.4"/>
      <feComposite in2="hardAlpha" operator="arithmetic" k2="-1" k3="1"/>
      <feColorMatrix type="matrix" values="0 0 0 0 1 0 0 0 0 1 0 0 0 0 1 0 0 0 0.4 0"/>
      <feBlend mode="normal" in2="shape" result="effect2_innerShadow"/>
    </filter>
    <filter id="bodyShadow" x="60" y="80" width="904" height="904" filterUnits="userSpaceOnUse" color-interpolation-filters="sRGB">
      <feFlood flood-opacity="0" result="BackgroundImageFix"/>
      <feColorMatrix in="SourceAlpha" type="matrix" values="0 0 0 0 0 0 0 0 0 0 0 0 0 0 0 0 0 0 127 0" result="hardAlpha"/>
      <feOffset dy="20"/>
      <feGaussianBlur stdDeviation="20"/>
      <feColorMatrix type="matrix" values="0 0 0 0 0 0 0 0 0 0 0 0 0 0 0 0 0 0 0.25 0"/>
      <feBlend mode="normal" in2="BackgroundImageFix" result="dropShadow"/>
      <feBlend mode="normal" in="SourceGraphic" in2="dropShadow" result="shape"/>
    </filter>
    <clipPath id="squircle">
      <path d="M512,100 C357.85,100 280.78,100 224.27,121.49 C175.81,139.85 139.85,175.81 121.49,224.27 C100,280.78 100,357.85 100,512 C100,666.15 100,743.22 121.49,799.73 C139.85,848.19 175.81,884.15 224.27,902.51 C280.78,924 357.85,924 512,924 C666.15,924 743.22,924 799.73,902.51 C848.19,884.15 884.15,848.19 902.51,799.73 C924,743.22 924,666.15 924,512 C924,357.85 924,280.78 902.51,224.27 C884.15,175.81 848.19,139.85 799.73,121.49 C743.22,100 666.15,100 512,100 Z"/>
    </clipPath>
  </defs>

  <g filter="url(#bodyShadow)">
    <path d="M512,100 C357.85,100 280.78,100 224.27,121.49 C175.81,139.85 139.85,175.81 121.49,224.27 C100,280.78 100,357.85 100,512 C100,666.15 100,743.22 121.49,799.73 C139.85,848.19 175.81,884.15 224.27,902.51 C280.78,924 357.85,924 512,924 C666.15,924 743.22,924 799.73,902.51 C848.19,884.15 884.15,848.19 902.51,799.73 C924,743.22 924,666.15 924,512 C924,357.85 924,280.78 902.51,224.27 C884.15,175.81 848.19,139.85 799.73,121.49 C743.22,100 666.15,100 512,100 Z" fill="url(#bgGrad)"/>
  </g>

  <g clip-path="url(#squircle)">
    <g filter="url(#logoShadow)" transform="translate(102.4 102.4) scale(0.8)">
      <path d="M313.833 610.857C327.479 610.857 338.542 621.922 338.542 635.571V689.248C338.543 695.801 341.148 702.088 345.78 706.722L366.242 727.188C370.875 731.822 377.16 734.428 383.712 734.429H639.288C645.84 734.428 652.125 731.822 656.758 727.188L677.22 706.722C681.852 702.088 684.457 695.801 684.458 689.248V635.571C684.458 621.922 695.521 610.857 709.167 610.857H783.292C796.938 610.857 808 621.922 808 635.571V709.714C808 723.364 796.938 734.429 783.292 734.429H729.628C723.077 734.43 716.792 737.035 712.159 741.669L691.697 762.136C687.064 766.77 684.459 773.056 684.458 779.609V833.286C684.458 846.935 673.396 858 659.75 858H363.25C349.604 858 338.542 846.935 338.542 833.286V779.609C338.541 773.056 335.936 766.77 331.303 762.136L310.841 741.669C306.208 737.035 299.923 734.43 293.372 734.429H239.708C226.062 734.429 215 723.364 215 709.714V635.571C215 621.922 226.062 610.857 239.708 610.857H313.833Z" fill="url(#logoFill)"/>
      <path fill-rule="evenodd" clip-rule="evenodd" d="M585.625 166C599.271 166 610.333 177.065 610.333 190.714V244.391C610.334 250.944 612.939 257.23 617.572 261.864L638.034 282.331C642.667 286.965 648.952 289.57 655.503 289.571H709.167C722.813 289.571 733.875 300.636 733.875 314.286V512C733.875 525.649 722.813 536.714 709.167 536.714H655.503C648.952 536.715 642.667 539.321 638.034 543.955L617.572 564.421C612.939 569.055 610.334 575.342 610.333 581.895V635.571C610.333 649.221 599.271 660.286 585.625 660.286H437.375C423.729 660.286 412.667 649.221 412.667 635.571V581.895C412.666 575.342 410.061 569.055 405.428 564.421L384.966 543.955C380.333 539.321 374.048 536.715 367.497 536.714H313.833C300.187 536.714 289.125 525.649 289.125 512V314.286C289.125 300.636 300.187 289.571 313.833 289.571H367.497C374.048 289.57 380.333 286.965 384.966 282.331L405.428 261.864C410.061 257.23 412.666 250.944 412.667 244.391V190.714C412.667 177.065 423.729 166 437.375 166H585.625ZM457.837 289.571C451.285 289.572 445 292.178 440.367 296.812L419.905 317.278C415.273 321.912 412.668 328.199 412.667 334.752V491.533C412.668 498.087 415.273 504.373 419.905 509.007L440.367 529.474C445 534.108 451.285 536.713 457.837 536.714H565.163C571.715 536.713 578 534.108 582.633 529.474L603.095 509.007C607.727 504.373 610.332 498.087 610.333 491.533V334.752C610.332 328.199 607.727 321.912 603.095 317.278L582.633 296.812C578 292.178 571.715 289.572 565.163 289.571H457.837Z" fill="url(#logoFill)"/>
      <path d="M239.708 612.857H313.833C326.374 612.857 336.542 623.026 336.542 635.571V689.248L336.55 689.911C336.721 696.755 339.515 703.283 344.366 708.136L364.828 728.603C369.836 733.611 376.629 736.428 383.711 736.429H639.289C646.371 736.428 653.165 733.611 658.173 728.603L678.634 708.136C683.641 703.127 686.457 696.332 686.458 689.248V635.571C686.458 623.026 696.626 612.857 709.167 612.857H783.292C795.833 612.858 806 623.026 806 635.571V709.714C806 722.259 795.833 732.429 783.292 732.429H729.628C722.546 732.43 715.752 735.246 710.744 740.255L690.283 760.722C685.276 765.731 682.459 772.526 682.458 779.609V833.286C682.458 845.831 672.291 856 659.75 856H363.25C350.709 856 340.542 845.831 340.542 833.286V779.609C340.541 772.526 337.724 765.731 332.717 760.722L312.256 740.255C307.405 735.403 300.877 732.607 294.035 732.437L293.372 732.429H239.708C227.167 732.429 217 722.259 217 709.714V635.571C217 623.026 227.167 612.858 239.708 612.857ZM437.375 168H585.625C598.166 168 608.333 178.169 608.333 190.714V244.391L608.342 245.054C608.513 251.897 611.307 258.426 616.158 263.278L636.619 283.745C641.627 288.754 648.421 291.57 655.503 291.571H709.167C721.708 291.571 731.875 301.741 731.875 314.286V512C731.875 524.545 721.708 534.714 709.167 534.714H655.503C648.421 534.715 641.627 537.532 636.619 542.541L616.158 563.007C611.151 568.016 608.334 574.811 608.333 581.895V635.571C608.333 648.116 598.166 658.286 585.625 658.286H437.375C424.834 658.286 414.667 648.116 414.667 635.571V581.895C414.666 574.811 411.85 568.016 406.843 563.007L386.381 542.541C381.53 537.689 375.002 534.894 368.16 534.723L367.497 534.714H313.833C301.292 534.714 291.125 524.545 291.125 512V314.286C291.125 301.741 301.292 291.571 313.833 291.571H367.497C374.579 291.57 381.373 288.754 386.381 283.745L406.843 263.278C411.85 258.27 414.666 251.474 414.667 244.391V190.714C414.667 178.169 424.834 168 437.375 168ZM457.836 287.571C450.754 287.572 443.961 290.389 438.953 295.397L418.491 315.864C413.484 320.873 410.668 327.668 410.667 334.752V491.534C410.668 498.618 413.484 505.412 418.491 510.421L438.953 530.888C443.961 535.896 450.754 538.713 457.836 538.714H565.164C572.246 538.713 579.04 535.896 584.048 530.888L604.509 510.421C609.516 505.412 612.332 498.618 612.333 491.534V334.752L612.325 334.089C612.154 327.245 609.36 320.717 604.509 315.864L584.048 295.397C579.04 290.389 572.246 287.572 565.164 287.571H457.836Z" stroke="url(#logoStroke)" stroke-width="4"/>
    </g>
  </g>
</svg>
