<svg width="73" height="18" viewBox="0 0 73 18" fill="none" xmlns="http://www.w3.org/2000/svg">
<g clip-path="url(#clip0_450_654)">
<path d="M28.368 15.788C25.902 15.788 24.12 14.762 23.382 12.98C22.878 11.774 23.454 11.09 24.192 11.09C24.768 11.09 25.038 11.45 25.236 12.062C25.668 13.394 26.892 14.114 28.422 14.114C30.168 14.114 31.284 13.394 31.284 12.098C31.284 11.018 30.438 10.496 28.998 10.19L27 9.758C25.038 9.344 23.472 8.21 23.472 6.248C23.472 4.106 25.488 2.594 28.242 2.594C30.438 2.594 32.004 3.458 32.688 4.934C33.246 6.122 32.688 6.788 32.004 6.788C31.464 6.788 31.122 6.482 30.924 5.888C30.582 4.916 29.628 4.268 28.17 4.268C26.64 4.268 25.524 4.97 25.524 6.068C25.524 7.094 26.298 7.598 27.684 7.886L29.862 8.354C31.842 8.768 33.336 9.866 33.336 11.882C33.336 14.096 31.536 15.788 28.368 15.788ZM38.7473 15.788C36.1913 15.788 34.3733 14.114 34.3733 11.126C34.3733 8.282 36.3353 6.482 38.8553 6.482C40.6733 6.482 41.8613 7.364 42.4013 8.444C42.9053 9.452 42.4553 10.136 41.7353 10.136C41.2493 10.136 40.9613 9.83 40.7813 9.326C40.5293 8.534 39.8813 7.958 38.8373 7.958C37.3613 7.958 36.2993 9.218 36.2993 11.126C36.2993 13.034 37.3073 14.33 38.8193 14.33C39.9353 14.33 40.6013 13.736 40.8893 12.908C41.0513 12.404 41.3573 12.116 41.8253 12.116C42.4913 12.116 42.9413 12.71 42.5093 13.718C42.0053 14.87 40.7813 15.788 38.7473 15.788ZM45.0861 15.734C44.5101 15.734 44.1501 15.338 44.1501 14.654V7.616C44.1501 6.914 44.5101 6.536 45.0861 6.536C45.6801 6.536 46.0221 6.914 46.0221 7.616C46.0221 7.868 46.0221 8.084 45.9861 8.282C46.4361 7.292 47.3361 6.536 48.2721 6.536C48.5241 6.536 48.7581 6.608 48.9381 6.734C49.1361 6.878 49.2621 7.112 49.2621 7.4C49.2621 7.724 49.1541 7.958 48.9741 8.102C48.8121 8.228 48.5961 8.3 48.3261 8.3C47.0121 8.336 46.0221 9.092 46.0221 11.018V14.654C46.0221 15.338 45.6801 15.734 45.0861 15.734ZM51.1772 15.734C50.6012 15.734 50.2412 15.374 50.2412 14.654V7.562C50.2412 6.842 50.6012 6.482 51.1772 6.482C51.7712 6.482 52.1132 6.842 52.1132 7.562V14.654C52.1132 15.374 51.7712 15.734 51.1772 15.734ZM49.9532 4.25C49.9532 3.548 50.4932 3.008 51.1952 3.008C51.8792 3.008 52.4192 3.548 52.4192 4.25C52.4192 4.934 51.8792 5.474 51.1952 5.474C50.4932 5.474 49.9532 4.934 49.9532 4.25ZM58.8683 15.788C57.5183 15.788 56.5463 15.158 56.0243 14.294C56.0423 14.42 56.0423 14.564 56.0423 14.726C56.0423 15.356 55.7003 15.734 55.1243 15.734C54.5483 15.734 54.1883 15.338 54.1883 14.654V3.746C54.1883 3.044 54.5483 2.666 55.1243 2.666C55.7183 2.666 56.0603 3.044 56.0603 3.746V7.202C56.0603 7.472 56.0423 7.724 56.0243 7.976C56.5823 7.13 57.5363 6.482 58.8683 6.482C61.1723 6.482 62.8463 8.354 62.8463 11.144C62.8463 13.988 61.2263 15.788 58.8683 15.788ZM55.9703 11.144C55.9703 13.034 56.9963 14.33 58.4363 14.33C59.9123 14.33 60.9203 13.034 60.9203 11.144C60.9203 9.272 59.9303 7.958 58.4363 7.958C56.9963 7.958 55.9703 9.2 55.9703 11.144ZM68.2619 15.788C65.6519 15.788 63.9239 14.132 63.9239 11.108C63.9239 8.39 65.7239 6.482 68.1719 6.482C70.9979 6.482 72.0599 8.534 72.2399 10.19C72.3839 11.342 71.9519 11.54 71.2139 11.54H65.8139C65.8499 13.232 66.8579 14.33 68.2799 14.33C69.1439 14.33 69.8999 13.97 70.2239 13.178C70.4219 12.746 70.6919 12.476 71.1419 12.476C71.8259 12.476 72.2759 13.124 71.7719 14.042C71.2859 14.978 70.0799 15.788 68.2619 15.788ZM65.8319 10.208H70.3499C70.3499 8.84 69.5219 7.904 68.1719 7.904C66.8579 7.904 65.9579 8.894 65.8319 10.208Z" fill="#292524" style="fill:#292524;fill:color(display-p3 0.1608 0.1451 0.1412);fill-opacity:1;"/>
<rect width="18" height="18" rx="4" fill="url(#paint0_linear_450_654)"/>
<path d="M5.33333 10.7071C5.58646 10.7071 5.79167 10.915 5.79167 11.1714V12.1798C5.79169 12.3029 5.84001 12.421 5.92594 12.508L6.3055 12.8925C6.39144 12.9796 6.50802 13.0285 6.62956 13.0285H11.3704C11.492 13.0285 11.6086 12.9796 11.6945 12.8925L12.0741 12.508C12.16 12.421 12.2083 12.3029 12.2083 12.1798V11.1714C12.2083 10.915 12.4135 10.7071 12.6667 10.7071H14.0417C14.2948 10.7071 14.5 10.915 14.5 11.1714V12.5643C14.5 12.8207 14.2948 13.0285 14.0417 13.0285H13.0462C12.9247 13.0286 12.8081 13.0775 12.7222 13.1646L12.3426 13.5491C12.2567 13.6361 12.2084 13.7542 12.2083 13.8773V14.8857C12.2083 15.1421 12.0031 15.35 11.75 15.35H6.25C5.99687 15.35 5.79167 15.1421 5.79167 14.8857V13.8773C5.79165 13.7542 5.74333 13.6361 5.65739 13.5491L5.27783 13.1646C5.19189 13.0775 5.07531 13.0286 4.95378 13.0285H3.95833C3.7052 13.0285 3.5 12.8207 3.5 12.5643V11.1714C3.5 10.915 3.7052 10.7071 3.95833 10.7071H5.33333Z" fill="white" style="fill:white;fill-opacity:1;"/>
<path fill-rule="evenodd" clip-rule="evenodd" d="M10.375 2.34998C10.6281 2.34998 10.8333 2.55784 10.8333 2.81426V3.82263C10.8334 3.94574 10.8817 4.06384 10.9676 4.1509L11.3472 4.53538C11.4331 4.62244 11.5497 4.67139 11.6712 4.6714H12.6667C12.9198 4.6714 13.125 4.87927 13.125 5.13569V8.84998C13.125 9.10639 12.9198 9.31426 12.6667 9.31426H11.6712C11.5497 9.31428 11.4331 9.36323 11.3472 9.45028L10.9676 9.83477C10.8817 9.92182 10.8334 10.0399 10.8333 10.163V11.1714C10.8333 11.4278 10.6281 11.6357 10.375 11.6357H7.625C7.37187 11.6357 7.16667 11.4278 7.16667 11.1714V10.163C7.16665 10.0399 7.11833 9.92182 7.03239 9.83477L6.65283 9.45028C6.56689 9.36323 6.45031 9.31428 6.32878 9.31426H5.33333C5.0802 9.31426 4.875 9.10639 4.875 8.84998V5.13569C4.875 4.87927 5.0802 4.6714 5.33333 4.6714H6.32878C6.45031 4.67139 6.56689 4.62244 6.65283 4.53538L7.03239 4.1509C7.11833 4.06384 7.16665 3.94574 7.16667 3.82263V2.81426C7.16667 2.55784 7.37187 2.34998 7.625 2.34998H10.375ZM8.00456 4.6714C7.88302 4.67142 7.76644 4.72037 7.6805 4.80743L7.30094 5.19191C7.21501 5.27897 7.16669 5.39707 7.16667 5.52018V8.46549C7.16669 8.5886 7.21501 8.7067 7.30094 8.79375L7.6805 9.17824C7.76644 9.26529 7.88302 9.31424 8.00456 9.31426H9.99544C10.117 9.31424 10.2336 9.26529 10.3195 9.17824L10.6991 8.79375C10.785 8.7067 10.8333 8.5886 10.8333 8.46549V5.52018C10.8333 5.39707 10.785 5.27897 10.6991 5.19191L10.3195 4.80743C10.2336 4.72037 10.117 4.67142 9.99544 4.6714H8.00456Z" fill="white" style="fill:white;fill-opacity:1;"/>
</g>
<defs>
<linearGradient id="paint0_linear_450_654" x1="9" y1="0" x2="9" y2="18" gradientUnits="userSpaceOnUse">
<stop stop-color="#DBC1A3" style="stop-color:#DBC1A3;stop-color:color(display-p3 0.8588 0.7569 0.6392);stop-opacity:1;"/>
<stop offset="1" stop-color="#9D7355" style="stop-color:#9D7355;stop-color:color(display-p3 0.6157 0.4510 0.3333);stop-opacity:1;"/>
</linearGradient>
<clipPath id="clip0_450_654">
<rect width="73" height="18" fill="white" style="fill:white;fill-opacity:1;"/>
</clipPath>
</defs>
</svg>
