<svg width="404" height="59" viewBox="0 0 404 59" fill="none" xmlns="http://www.w3.org/2000/svg">
  <path d="M370 0C386.016 4.47761e-06 399 12.9837 399 29C399 34.4535 397.494 39.5549 394.876 43.9122C393.955 45.445 393.914 47.4193 395.13 48.7308C397.153 50.9139 399.492 52.8005 402.074 54.3174C403.68 55.2606 403.573 57.7338 401.738 58.0518C400.036 58.3463 398.286 58.5 396.5 58.5C392.19 58.5 388.089 57.6049 384.372 55.9918C383.221 55.4925 381.914 55.4764 380.75 55.9417C377.425 57.2694 373.798 58 370 58H29C12.9837 58 0 45.0163 0 29C0 12.9837 12.9837 0 29 0H370Z" fill="black"/>
</svg>
